<?xml version="1.0" encoding="iso-8859-1"?>
<!-- Generator: Adobe Illustrator 19.1.0, SVG Export Plug-In . SVG Version: 6.00 Build 0)  -->
<svg xmlns="http://www.w3.org/2000/svg" xmlns:xlink="http://www.w3.org/1999/xlink" version="1.1" id="Capa_1" x="0px" y="0px" viewBox="0 0 66 66" style="enable-background:new 0 0 66 66;" xml:space="preserve" width="512px" height="512px">
<g>
	<g>
		<path d="M13.5,32.619c0-1.104-0.896-2-2-2h-9c-1.104,0-2,0.896-2,2s0.896,2,2,2h9C12.604,34.619,13.5,33.723,13.5,32.619z" fill="#FFDA44"/>
		<path d="M63.5,30.619h-8c-1.104,0-2,0.896-2,2s0.896,2,2,2h8c1.104,0,2-0.896,2-2S64.604,30.619,63.5,30.619z" fill="#FFDA44"/>
		<path d="M35,64v-9c0-1.104-0.896-2-2-2c-1.104,0-2,0.896-2,2v9c0,1.104,0.896,2,2,2C34.104,66,35,65.104,35,64z" fill="#FFDA44"/>
		<path d="M31,2v9c0,1.104,0.896,2,2,2c1.104,0,2-0.896,2-2V2c0-1.104-0.896-2-2-2C31.896,0,31,0.895,31,2z" fill="#FFDA44"/>
		<path d="M19.592,49.918c0.781-0.781,0.781-2.047,0-2.828s-2.047-0.781-2.828,0l-5.844,5.844c-0.781,0.781-0.781,2.047,0,2.828    c0.391,0.391,0.902,0.586,1.414,0.586s1.023-0.195,1.414-0.586L19.592,49.918z" fill="#FFDA44"/>
		<path d="M57.252,12.258c0.781-0.781,0.781-2.047,0-2.828s-2.047-0.781-2.828,0l-5.844,5.844c-0.781,0.781-0.781,2.047,0,2.828    c0.391,0.391,0.902,0.586,1.414,0.586s1.023-0.195,1.414-0.586L57.252,12.258z" fill="#FFDA44"/>
		<path d="M50.76,47.09c-0.781-0.781-2.047-0.781-2.828,0c-0.781,0.78-0.781,2.047,0,2.828l5.842,5.844    c0.391,0.391,0.902,0.586,1.414,0.586s1.023-0.195,1.414-0.586c0.781-0.78,0.781-2.047,0-2.828L50.76,47.09z" fill="#FFDA44"/>
		<path d="M18.943,15.273L13.1,9.43c-0.781-0.781-2.047-0.781-2.828,0s-0.781,2.047,0,2.828l5.844,5.844    c0.391,0.391,0.902,0.586,1.414,0.586s1.023-0.195,1.414-0.586C19.725,17.32,19.725,16.055,18.943,15.273z" fill="#FFDA44"/>
		<path d="M33.799,15.303c-9.478,0-17.188,7.711-17.188,17.189s7.711,17.189,17.188,17.189c9.479,0,17.189-7.711,17.189-17.189    S43.277,15.303,33.799,15.303z M33.799,45.681c-7.272,0-13.188-5.917-13.188-13.189s5.916-13.189,13.188-13.189    s13.189,5.917,13.189,13.189S41.071,45.681,33.799,45.681z" fill="#FFDA44"/>
	</g>
</g>
<g>
</g>
<g>
</g>
<g>
</g>
<g>
</g>
<g>
</g>
<g>
</g>
<g>
</g>
<g>
</g>
<g>
</g>
<g>
</g>
<g>
</g>
<g>
</g>
<g>
</g>
<g>
</g>
<g>
</g>
</svg>
