<?xml version="1.0" encoding="iso-8859-1"?>
<!-- Generator: Adobe Illustrator 19.1.0, SVG Export Plug-In . SVG Version: 6.00 Build 0)  -->
<svg xmlns="http://www.w3.org/2000/svg" xmlns:xlink="http://www.w3.org/1999/xlink" version="1.1" id="Capa_1" x="0px" y="0px" viewBox="0 0 32.928 32.928" style="enable-background:new 0 0 32.928 32.928;" xml:space="preserve" width="512px" height="512px">
<g>
	<g>
		<path d="M7.643,23.496C7.642,23.496,7.642,23.496,7.643,23.496l-2.595-0.004    C2.265,23.492,0,21.226,0,18.442c0-2.46,1.785-4.526,4.129-4.962c0.515-4.474,4.364-7.985,8.948-7.985    c3.131,0,5.971,1.58,7.631,4.236c0.153,0.167,0.246,0.391,0.246,0.635c0,0.519-0.421,0.941-0.941,0.941    c-0.004,0.001-0.01,0.001-0.019,0c-0.012,0-0.024,0-0.037-0.001c-0.013,0-0.115-0.008-0.127-0.007    c-3.912,0-7.103,3.129-7.182,6.975c-0.011,0.509-0.424,0.917-0.934,0.922c-1.731,0.015-3.14,1.435-3.14,3.165    c0,0.007,0.008,0.144,0.009,0.15c0.012,0.257-0.083,0.508-0.261,0.693C8.144,23.391,7.899,23.496,7.643,23.496z M13.077,7.378    c-3.85,0-7.044,3.13-7.122,6.979c-0.011,0.509-0.424,0.917-0.934,0.922c-1.731,0.015-3.139,1.435-3.139,3.164    c0,1.746,1.42,3.167,3.166,3.167l1.698,0.003c0.319-2.122,1.973-3.823,4.074-4.214c0.455-3.951,3.512-7.151,7.376-7.846    C16.872,8.17,15.048,7.378,13.077,7.378z" fill="#FFFFFF"/>
	</g>
	<g>
		<path d="M28.945,27.433L28.945,27.433l-8.752-0.012c-0.212,0.013-0.596,0.015-0.913-0.002l-7.54-0.008    c-2.697,0-4.911-2.114-5.038-4.812c-0.007-0.112-0.011-0.174-0.011-0.237c0-2.461,1.786-4.527,4.13-4.963    c0.516-4.474,4.365-7.985,8.948-7.985c0.068,0,0.135,0.004,0.201,0.009c4.96,0.138,8.809,4.09,8.809,9.001    c0,0.353-0.021,0.702-0.061,1.05c2.246-0.139,4.21,1.705,4.209,3.977C32.928,25.646,31.141,27.433,28.945,27.433z M19.829,11.3    c-3.912,0-7.103,3.129-7.182,6.975c-0.011,0.509-0.424,0.917-0.934,0.922c-1.731,0.015-3.14,1.435-3.14,3.165    c0,0.007,0.008,0.144,0.009,0.15c0.079,1.691,1.467,3.017,3.158,3.017l7.591,0.01c0.348,0.018,0.558,0.016,0.811,0.002l8.804,0.01    c1.157,0,2.099-0.942,2.099-2.1c0-1.159-0.941-2.101-2.1-2.101c-0.356,0-0.695,0.086-1.006,0.256    c-0.337,0.182-0.749,0.144-1.046-0.097c-0.296-0.241-0.417-0.639-0.306-1.004c0.205-0.671,0.309-1.371,0.309-2.081    c0-3.884-3.044-7.01-6.929-7.116C19.951,11.307,19.847,11.299,19.829,11.3z" fill="#FFFFFF"/>
	</g>
</g>
<g>
</g>
<g>
</g>
<g>
</g>
<g>
</g>
<g>
</g>
<g>
</g>
<g>
</g>
<g>
</g>
<g>
</g>
<g>
</g>
<g>
</g>
<g>
</g>
<g>
</g>
<g>
</g>
<g>
</g>
</svg>
