<?xml version="1.0" encoding="iso-8859-1"?>
<!-- Generator: Adobe Illustrator 19.1.0, SVG Export Plug-In . SVG Version: 6.00 Build 0)  -->
<svg xmlns="http://www.w3.org/2000/svg" xmlns:xlink="http://www.w3.org/1999/xlink" version="1.1" id="Capa_1" x="0px" y="0px" viewBox="0 0 64 64" style="enable-background:new 0 0 64 64;" xml:space="preserve" width="512px" height="512px">
<g>
	<path d="M56.975,29.073C56.439,19.025,47.236,11,36,11c-1.959,0-3.854,0.275-5.658,0.769C27.916,9.962,25.042,9,22,9   C14.28,9,8,15.28,8,23c0,2.164,0.487,3.615,1.247,5.018C6.683,30.011,5,33.291,5,37c0,5.794,4.206,10,10,10h41c4.71,0,8-3.29,8-8   C64,34.507,61.217,29.718,56.975,29.073z M10,23c0-6.617,5.383-12,12-12c2.119,0,4.143,0.547,5.943,1.58   c-5.84,2.384-10.312,7.286-11.754,13.42H15c-1.442,0-2.811,0.344-4.05,0.951C10.292,25.7,10,24.618,10,23z M56,45H15   c-4.71,0-8-3.29-8-8c0-4.962,3.589-9,8-9h2.83l0.153-0.815C19.528,18.965,27.105,13,36,13c10.477,0,19,7.626,19,17v1h1   c3.536,0,6,4.216,6,8C62,42.645,59.645,45,56,45z" fill="#8a758a"/>
	<rect y="22" width="6" height="2" fill="#8a758a"/>
	<rect x="21" y="1" width="2" height="6" fill="#8a758a"/>
	<path d="M9.293,11.706l-6-6l1.414-1.414l6,6L9.293,11.706z" fill="#8a758a"/>
	<rect x="23" y="49" width="2" height="4" fill="#8a758a"/>
	<rect x="23" y="57" width="2" height="4" fill="#8a758a"/>
	<path d="M27.293,50.294l1.414,1.414l-2,2l-1.414-1.414L27.293,50.294z" fill="#8a758a"/>
	<path d="M21.293,56.294l1.414,1.414l-2,2l-1.414-1.414L21.293,56.294z" fill="#8a758a"/>
	<path d="M25.293,57.707l1.414-1.414l2,2l-1.414,1.414L25.293,57.707z" fill="#8a758a"/>
	<path d="M22.706,52.293l-1.414,1.414l-2-2l1.414-1.414L22.706,52.293z" fill="#8a758a"/>
	<rect x="26" y="54" width="4" height="2" fill="#8a758a"/>
	<rect x="18" y="54" width="4" height="2" fill="#8a758a"/>
	<rect x="43" y="51" width="2" height="4" fill="#8a758a"/>
	<rect x="43" y="59" width="2" height="4" fill="#8a758a"/>
	<path d="M47.293,52.293l1.414,1.414l-2,2l-1.414-1.414L47.293,52.293z" fill="#8a758a"/>
	<path d="M41.293,58.293l1.414,1.414l-2,2l-1.414-1.414L41.293,58.293z" fill="#8a758a"/>
	<path d="M45.293,59.707l1.414-1.414l2,2l-1.414,1.414L45.293,59.707z" fill="#8a758a"/>
	<path d="M42.707,54.292l-1.414,1.414l-2-2l1.414-1.414L42.707,54.292z" fill="#8a758a"/>
	<rect x="46" y="56" width="4" height="2" fill="#8a758a"/>
	<rect x="38" y="56" width="4" height="2" fill="#8a758a"/>
	<g>
	</g>
	<g>
	</g>
	<g>
	</g>
	<g>
	</g>
	<g>
	</g>
	<g>
	</g>
	<g>
	</g>
	<g>
	</g>
	<g>
	</g>
	<g>
	</g>
	<g>
	</g>
	<g>
	</g>
	<g>
	</g>
	<g>
	</g>
	<g>
	</g>
</g>
<g>
</g>
<g>
</g>
<g>
</g>
<g>
</g>
<g>
</g>
<g>
</g>
<g>
</g>
<g>
</g>
<g>
</g>
<g>
</g>
<g>
</g>
<g>
</g>
<g>
</g>
<g>
</g>
<g>
</g>
</svg>
